<svg width="147" height="125" viewBox="0 0 147 125" fill="none" xmlns="http://www.w3.org/2000/svg">
<path d="M61.8333 21.3999C64.2333 23.0999 65.9333 24.6999 68.1333 26.2999C67.6333 23.7999 66.9333 21.4999 66.1333 19.1999C65.8333 18.2999 66.0333 17.8999 66.7333 17.3999C68.7333 15.9999 72.9333 12.8999 72.9333 12.8999C72.9333 12.8999 66.9333 12.8999 64.2333 12.8999L61.8333 4.8999" fill="#4D63AD"/>
<path d="M61.9333 38.4999C63.2333 38.0999 64.1333 37.6999 65.3333 37.1999C68.6333 35.6999 70.4333 32.8999 71.5333 29.3999C72.5333 26.0999 73.0333 22.5999 75.0333 19.6999C76.8333 16.8999 79.4333 15.4999 82.6333 15.2999C87.7333 14.8999 92.1333 16.9999 96.2333 19.7999C99.8333 22.2999 103.333 25.0999 107.133 27.1999C110.733 29.1999 114.633 30.6999 118.533 32.0999C121.633 33.1999 124.833 33.8999 128.133 34.4999C129.733 34.7999 131.533 34.5999 133.233 34.6999C131.433 36.4999 129.433 37.6999 127.033 37.9999C123.433 38.3999 120.033 37.6999 116.533 36.5999C111.733 35.0999 107.133 33.1999 102.933 30.4999C100.333 28.7999 97.8333 26.8999 95.2333 25.2999C92.6333 23.6999 90.0333 22.0999 87.0333 21.4999C82.5333 20.6999 78.8333 22.4999 76.7333 26.4999C75.8333 28.1999 75.0333 29.8999 74.2333 31.5999C72.6333 35.2999 70.1333 37.7999 66.2333 38.9999C64.9333 39.3999 63.6333 39.7999 62.2333 40.2999C62.0333 39.4999 61.9333 38.9999 61.8333 38.4999C61.6333 38.3999 61.9333 38.4999 61.9333 38.4999Z" fill="#4D63AD"/>
<path d="M119.133 42.6999C118.833 42.3999 118.433 42.2999 118.033 42.0999C116.733 41.6999 115.433 41.2999 114.233 40.7999C111.233 39.3999 108.233 37.9999 105.233 36.5999C100.433 34.3999 95.7333 32.0999 91.4333 28.9999C89.6333 27.6999 87.7333 26.5999 85.5333 26.3999C83.0333 26.0999 80.8333 26.4999 79.3333 28.5999C77.9333 30.4999 76.9333 32.6999 75.8333 34.7999C74.8333 36.5999 74.0333 38.4999 72.7333 40.0999C70.5333 42.7999 67.2333 43.6999 63.8333 44.1999C61.6333 44.4999 61.6333 44.4999 61.4333 42.2999C61.4333 42.1999 61.3333 42.1999 61.4333 42.2999C59.9333 41.8999 58.6333 41.4999 57.3333 40.9999C54.3333 39.8999 51.7333 38.2999 50.2333 35.2999C49.1333 33.1999 48.1333 30.9999 47.0333 28.7999C44.8333 24.1999 39.6333 21.4999 34.5333 23.9999C31.6333 25.4999 28.6333 26.8999 25.9333 28.7999C19.9333 33.1999 13.4333 36.6999 6.33333 38.6999C5.03333 39.0999 4.53333 39.7999 4.23333 40.9999C4.23333 41.1999 4.13333 41.2999 4.03333 41.4999C1.43333 47.7999 0.233333 54.3999 0.0333333 61.0999C-0.166667 67.1999 0.533336 73.2999 2.13334 79.2999C4.43334 87.4999 8.13334 94.9999 13.5333 101.6C21.4333 111.4 31.4333 118.2 43.5333 121.8C46.9333 122.8 50.5333 123.5 54.0333 124.1C55.9333 124.4 57.8333 124.4 59.7333 124.5C59.8333 124.3 60.0333 124.1 60.1333 123.9C59.3333 123.3 58.5333 122.8 57.8333 122.1C56.8333 121.2 55.8333 120.3 54.9333 119.3C52.7333 116.9 53.3333 112.4 56.1333 110.7C57.6333 109.8 57.6333 108.9 56.3333 107.6C54.9333 106.3 53.5333 105 52.3333 103.5C49.9333 100.4 49.3333 98.1999 51.5333 94.8999C52.6333 93.1999 54.1333 91.7999 55.5333 90.3999C56.9333 88.9999 57.0333 88.7999 55.4333 87.4999C54.1333 86.4999 52.8333 85.4999 51.5333 84.4999C47.2333 81.3999 47.4333 77.3999 49.8333 73.7999C51.1333 71.8999 53.1333 70.6999 55.2333 69.6999C55.6333 69.4999 55.9333 69.0999 56.3333 68.7999C56.0333 68.4999 55.7333 68.0999 55.3333 67.8999C52.4333 66.2999 49.4333 64.6999 46.5333 62.9999C43.6333 61.3999 41.4333 59.0999 40.7333 55.7999C40.0333 52.7999 40.0333 49.8999 42.3333 47.5999C43.6333 46.2999 45.3333 45.8999 47.0333 45.5999C50.5333 44.9999 53.5333 45.7999 55.8333 48.4999C57.0333 49.8999 58.1333 51.2999 59.8333 52.2999C61.1333 53.0999 61.7333 54.7999 61.1333 55.8999C60.6333 56.9999 59.8333 57.7999 58.6333 57.9999C57.2333 58.1999 55.9333 57.8999 55.0333 56.6999C54.4333 55.8999 54.0333 55.0999 53.5333 54.2999C52.7333 52.7999 51.6333 51.7999 50.0333 51.2999C48.7333 50.8999 47.3333 50.9999 46.3333 51.9999C45.4333 52.9999 44.8333 54.2999 45.6333 55.5999C46.3333 56.6999 47.1333 57.8999 48.1333 58.6999C51.1333 61.0999 54.6333 62.7999 58.1333 64.1999C59.6333 64.7999 60.9333 65.5999 61.2333 67.2999C61.7333 70.0999 60.6333 71.7999 58.0333 72.9999C57.0333 73.4999 55.9333 73.8999 55.1333 74.5999C52.3333 76.7999 51.7333 79.0999 54.5333 81.7999C54.9333 82.1999 55.3333 82.4999 55.7333 82.7999C57.0333 83.6999 58.4333 84.6999 59.7333 85.5999C61.9333 87.0999 61.7333 90.8999 59.7333 92.1999C58.1333 93.2999 56.8333 94.6999 55.5333 96.0999C54.0333 97.6999 53.9333 99.1999 55.0333 101C55.7333 102 56.7333 102.9 57.5333 103.8C58.5333 104.8 59.5333 105.7 60.4333 106.8C61.8333 108.5 61.5333 110.8 59.8333 112.2C59.5333 112.5 59.1333 112.8 58.8333 113.1C56.3333 115.4 56.7333 116.2 58.3333 118.7C58.5333 119 58.8333 119.3 59.1333 119.6C60.2333 121 61.1333 122.5 60.9333 124.4C61.2333 123.9 61.4333 123.4 61.4333 122.9C61.4333 119.3 61.3333 115.7 61.3333 112C61.3333 111.7 61.4333 111.4 61.5333 110.9C62.5333 111.8 63.5333 112.5 64.3333 113.3C65.8333 114.8 65.9333 116.2 64.7333 117.9C64.0333 118.9 63.2333 119.9 62.5333 120.9C61.9333 121.9 61.4333 122.9 62.2333 124.4C63.1333 123.5 64.0333 122.7 64.8333 121.9C65.8333 121 66.7333 120 67.6333 119C69.7333 116.7 69.2333 112.5 66.5333 110.7C64.7333 109.5 64.7333 108.7 66.4333 107.2C68.3333 105.4 70.2333 103.6 71.4333 101.3C72.4333 99.4999 72.4333 97.6999 71.5333 95.9999C70.3333 93.5999 68.5333 91.6999 66.5333 90.0999C65.4333 89.1999 65.4333 88.6999 66.4333 87.7999C67.9333 86.5999 69.4333 85.3999 71.0333 84.2999C75.8333 80.7999 74.8333 76.1999 71.6333 72.9999C70.4333 71.7999 68.7333 70.9999 67.3333 69.9999C66.8333 69.6999 66.5333 69.1999 66.0333 68.7999C66.4333 68.4999 66.7333 67.9999 67.1333 67.7999C69.5333 66.4999 72.1333 65.2999 74.4333 63.7999C76.9333 62.2999 79.5333 60.7999 80.7333 57.9999C82.1333 54.8999 82.7333 51.6999 80.8333 48.5999C80.5333 48.0999 80.1333 47.5999 79.5333 46.7999C81.4333 46.7999 82.9333 46.7999 84.6333 46.7999C83.9333 45.9999 83.3333 45.3999 82.9333 44.6999C82.6333 44.1999 82.5333 43.3999 82.7333 42.8999C83.1333 42.1999 83.8333 42.0999 84.7333 42.4999C87.3333 43.6999 90.0333 44.8999 92.7333 45.8999C93.9333 46.3999 95.2333 46.4999 96.4333 46.7999C96.4333 46.6999 96.4333 46.5999 96.5333 46.4999C95.0333 45.0999 93.5333 43.5999 92.0333 42.1999C92.1333 42.0999 92.2333 41.9999 92.2333 41.8999C96.9333 43.2999 101.433 45.5999 106.533 45.0999C105.533 44.2999 104.533 43.6999 103.533 42.9999C102.533 42.2999 101.433 41.6999 101.333 39.9999C107.733 41.8999 113.233 43.6999 119.133 42.6999ZM61.7333 47.0999C64.0333 47.0999 66.2333 47.0999 68.8333 47.0999C66.3333 49.4999 64.1333 51.6999 61.7333 54.1999C61.7333 51.5999 61.7333 49.3999 61.7333 47.0999ZM66.9333 95.5999C69.4333 98.0999 69.3333 100.1 66.9333 102.6C65.3333 104.2 63.6333 105.8 61.8333 107.4C61.8333 102 61.8333 96.5999 61.8333 90.9999C63.6333 92.5999 65.3333 93.9999 66.9333 95.5999ZM67.8333 74.6999C71.0333 76.7999 71.2333 79.4999 68.3333 82.0999C67.1333 83.1999 65.6333 84.0999 64.2333 85.0999C63.4333 85.6999 62.6333 86.3999 61.7333 87.1999C61.7333 81.5999 61.7333 76.1999 61.7333 70.8999C63.7333 72.1999 65.8333 73.3999 67.8333 74.6999ZM76.6333 57.2999C75.6333 58.3999 74.4333 59.2999 73.2333 60.0999C70.4333 61.6999 67.5333 63.0999 64.7333 64.5999C63.7333 65.1999 62.8333 65.8999 61.7333 66.5999C61.7333 63.1999 61.7333 59.7999 61.7333 56.4999C62.5333 56.9999 63.3333 57.7999 64.2333 58.0999C66.3333 58.5999 67.5333 57.8999 68.8333 55.6999C69.6333 54.2999 70.3333 52.5999 72.0333 51.8999C72.9333 51.5999 74.0333 51.3999 75.0333 51.3999C76.1333 51.3999 77.0333 51.9999 77.4333 53.0999C77.9333 54.5999 77.7333 56.0999 76.6333 57.2999Z" fill="#4D63AD"/>
<path d="M61.7333 4.9V0C49.1333 0 38.0333 3.4 27.8333 10.2C19.8333 15.5 13.4333 22.3 8.73328 30.7C11.1333 29.8 13.6333 28.9 15.7333 27.6C19.7333 25.2 23.5333 22.5 27.3333 19.8C31.3333 17 35.5333 15 40.6333 15.3C44.3333 15.5 47.3333 16.9 48.9333 20.3C50.2333 23.1 51.0333 26.1 51.9333 29.1C52.8333 32.3 54.4333 35.1 57.3333 36.8C58.6333 37.5 61.6333 38.5 61.6333 38.5V21.5C59.2333 23.2 57.5333 24.8 55.3333 26.4C55.8333 23.9 56.5333 21.6 57.3333 19.3C57.6333 18.4 57.4333 18 56.7333 17.5C54.7333 16.1 50.5333 13 50.5333 13C50.5333 13 56.5333 13 59.2333 13L61.7333 4.9Z" fill="#4D63AD"/>
<path d="M78.1333 85.7999C79.4333 85.6999 80.7333 85.6999 81.9333 85.5999C81.7333 85.1999 81.2333 84.6999 81.2333 84.2999C81.1333 82.1999 81.0333 80.0999 81.0333 77.8999C81.0333 77.5999 81.4333 77.0999 81.6333 77.0999C84.5333 76.9999 87.4333 77.0999 90.5333 77.0999C90.1333 79.9999 91.1333 82.8999 89.9333 85.6999C91.0333 85.6999 92.1333 85.6999 93.0333 85.6999C92.8333 85.0999 92.4333 84.5999 92.4333 83.9999C92.3333 82.4999 92.4333 80.9999 92.4333 79.4999C92.4333 77.2999 92.2333 74.9999 92.3333 72.7999C92.3333 71.5999 91.9333 70.0999 93.5333 69.4999C92.0333 69.4999 90.6333 69.4999 89.1333 69.4999C89.5333 69.8999 90.2333 70.1999 90.3333 70.5999C90.4333 72.3999 90.4333 74.2999 90.4333 76.1999C87.3333 76.1999 84.2333 76.1999 81.1333 76.1999C81.1333 74.6999 81.1333 73.3999 81.1333 71.9999C81.1333 70.9999 80.9333 69.8999 82.3333 69.3999C81.0333 69.4999 79.8333 69.4999 78.7333 69.5999C78.9333 70.3999 79.2333 70.9999 79.2333 71.6999C79.2333 75.3999 79.2333 79.1999 79.2333 82.8999C79.2333 83.9999 79.3333 85.1999 78.1333 85.7999Z" fill="white"/>
<path d="M108.833 85.8001C107.233 85.2001 107.133 85.1001 107.133 83.3001C107.133 79.9001 107.133 76.6001 107.133 73.2001C107.133 72.2001 107.133 71.2001 107.133 70.3001C109.833 69.6001 111.733 71.1001 112.233 73.2001C112.833 76.0001 111.833 77.4001 108.233 78.5001C109.933 78.7001 111.233 78.2001 112.433 77.2001C113.833 76.0001 114.333 74.3001 113.933 72.6001C113.533 71.0001 112.433 70.0001 110.733 69.8001C109.333 69.7001 107.933 69.8001 106.533 69.7001C105.633 69.7001 104.733 69.6001 103.833 69.6001C105.333 69.9001 105.333 71.0001 105.333 72.2001C105.233 75.6001 105.333 79.0001 105.333 82.4001C105.333 83.6001 105.033 84.7001 104.933 85.9001C106.033 85.8001 107.433 85.8001 108.833 85.8001Z" fill="#4D63AD"/>
<path d="M96.9332 85.9001C98.0332 85.8001 99.3332 85.8001 100.433 85.7001C100.233 84.9001 99.8332 84.2001 99.8332 83.4001C99.7332 79.7001 99.7332 75.9001 99.8332 72.2001C99.8332 71.2001 99.7332 70.0001 101.133 69.6001C99.7332 69.6001 98.3332 69.6001 97.2332 69.6001C97.5332 70.1001 98.0332 70.7001 98.0332 71.2001C98.1332 75.4001 98.0332 79.7001 97.9332 83.9001C97.8332 84.6001 97.2332 85.2001 96.9332 85.9001Z" fill="#4D63AD"/>
<path d="M78.1333 85.7999C79.3333 85.0999 79.3333 83.9999 79.3333 82.8999C79.3333 79.1999 79.3333 75.3999 79.3333 71.6999C79.3333 71.0999 79.0333 70.3999 78.8333 69.5999C79.9333 69.4999 81.1333 69.4999 82.4333 69.3999C81.0333 69.8999 81.2333 70.9999 81.2333 71.9999C81.2333 73.3999 81.2333 74.6999 81.2333 76.1999C84.3333 76.1999 87.4333 76.1999 90.5333 76.1999C90.5333 74.2999 90.6333 72.4999 90.4333 70.5999C90.4333 70.1999 89.7333 69.8999 89.2333 69.4999C90.6333 69.4999 92.1333 69.4999 93.6333 69.4999C91.9333 70.0999 92.4333 71.5999 92.4333 72.7999C92.3333 74.9999 92.5333 77.2999 92.5333 79.4999C92.5333 80.9999 92.5333 82.4999 92.5333 83.9999C92.5333 84.4999 92.9333 85.0999 93.1333 85.6999C92.1333 85.6999 91.0333 85.6999 90.0333 85.6999C91.2333 82.8999 90.2333 80.0999 90.6333 77.0999C87.5333 77.0999 84.6333 77.0999 81.7333 77.0999C81.5333 77.0999 81.1333 77.5999 81.1333 77.8999C81.1333 79.9999 81.1333 82.0999 81.3333 84.2999C81.3333 84.6999 81.8333 85.1999 82.0333 85.5999C80.7333 85.6999 79.4333 85.7999 78.1333 85.7999Z" fill="#4D63AD"/>
<path d="M108.833 85.8C107.433 85.8 106.033 85.8 104.833 85.8C104.933 84.6 105.233 83.5 105.233 82.3C105.333 78.9 105.233 75.5 105.233 72.1C105.233 70.9 105.233 69.8 103.733 69.5C104.633 69.5 105.533 69.6 106.433 69.6C107.833 69.6 109.233 69.6 110.633 69.7C112.333 69.8 113.533 70.8 113.833 72.5C114.233 74.3 113.733 75.9 112.333 77.1C111.233 78.1 109.933 78.6 108.133 78.4C111.733 77.3 112.733 75.9 112.133 73.1C111.633 71.1 109.733 69.6 107.033 70.2C107.033 71.1 107.033 72.1 107.033 73.1C107.033 76.5 107.033 79.8 107.033 83.2C107.133 85.1 107.233 85.2 108.833 85.8Z" fill="#4D63AD"/>
<path d="M96.9332 85.9001C97.3332 85.2001 97.8332 84.6001 97.8332 83.9001C97.9332 79.7001 97.9332 75.4001 97.9332 71.2001C97.9332 70.6001 97.3332 70.0001 97.1332 69.6001C98.3332 69.6001 99.7332 69.6001 101.033 69.6001C99.6332 70.0001 99.7332 71.2001 99.7332 72.2001C99.6332 75.9001 99.7332 79.7001 99.7332 83.4001C99.7332 84.1001 100.133 84.9001 100.333 85.7001C99.3332 85.7001 97.9332 85.8001 96.9332 85.9001Z" fill="#4D63AD"/>
<path d="M143.533 82.9999C142.033 79.5999 140.533 76.1999 139.033 72.7999C138.533 71.5999 137.933 70.3999 137.233 68.9999C136.933 69.4999 136.833 69.5999 136.733 69.7999C134.833 74.2999 132.933 78.8999 131.033 83.3999C130.733 84.0999 130.133 84.5999 129.733 85.1999C129.233 84.5999 128.533 84.0999 128.233 83.4999C126.633 80.0999 125.133 76.5999 123.633 73.1999C123.033 71.8999 122.433 70.5999 121.733 68.8999C119.933 73.0999 118.433 76.9999 116.733 80.6999C115.933 82.4999 115.733 84.5999 113.433 85.7999C115.133 85.7999 116.433 85.7999 117.833 85.7999C116.233 85.5999 116.633 84.5999 117.033 83.5999C117.433 82.5999 117.833 81.4999 118.233 80.4999C118.433 79.7999 118.833 79.4999 119.633 79.4999C120.933 79.5999 122.233 79.4999 123.533 79.5999C123.933 79.5999 124.533 79.9999 124.733 80.2999C125.533 82.0999 126.233 83.8999 126.933 85.7999C128.733 85.7999 130.733 85.7999 132.333 85.7999C132.333 85.0999 132.233 84.4999 132.333 83.9999C132.733 82.6999 133.233 81.4999 133.733 80.2999C133.933 79.8999 134.433 79.5999 134.833 79.5999C136.233 79.4999 137.633 79.4999 139.033 79.5999C139.333 79.5999 139.733 79.7999 139.833 79.9999C140.633 81.8999 141.433 83.7999 142.333 85.8999C143.633 85.8999 145.033 85.8999 146.533 85.8999C144.933 85.4999 144.133 84.3999 143.533 82.9999ZM118.933 78.5999C119.733 76.5999 120.433 74.5999 121.133 72.6999C121.233 72.6999 121.333 72.6999 121.433 72.6999C122.233 74.5999 122.933 76.4999 123.733 78.5999C122.133 78.5999 120.633 78.5999 118.933 78.5999ZM134.433 78.5999C134.933 77.1999 135.533 75.7999 136.033 74.3999C136.233 73.8999 136.433 73.3999 136.633 72.7999C136.733 72.7999 136.833 72.7999 136.933 72.7999C137.233 73.4999 137.533 74.2999 137.833 74.9999C138.333 76.1999 138.833 77.2999 139.333 78.5999C137.633 78.5999 136.133 78.5999 134.433 78.5999Z" fill="#4D63AD"/>
</svg>
