<?xml version="1.0" encoding="utf-8"?>
<!-- Generator: Adobe Illustrator 24.0.3, SVG Export Plug-In . SVG Version: 6.00 Build 0)  -->
<svg version="1.1" id="Layer_1" xmlns="http://www.w3.org/2000/svg" xmlns:xlink="http://www.w3.org/1999/xlink" x="0px" y="0px"
	 viewBox="0 0 90 14" style="enable-background:new 0 0 90 14;" xml:space="preserve">
<g>
	<polygon style="fill:#FFFFFF;" points="21.8,14 31.2,14 26.5,11.6 	"/>
	<polygon style="fill:#FFFFFF;" points="40.2,14 49.6,14 44.9,11.6 	"/>
	<polygon style="fill:#FFFFFF;" points="37.3,5.3 42.6,4.6 44.9,0 26.5,0 28.9,4.6 34.1,5.3 30.3,8.9 31.2,14 40.2,14 41.1,8.9 	"/>
	<polygon style="fill:#FFFFFF;" points="0,5.3 0,14 2.9,14 3.8,8.9 	"/>
	<polygon style="fill:#FFFFFF;" points="18.9,5.3 24.2,4.6 26.5,0 7.6,0 10,4.6 15.2,5.3 11.4,8.9 12.3,14 21.8,14 22.7,8.9 	"/>
	<polygon style="fill:#FFFFFF;" points="7.6,0 0,0 0,5.3 5.3,4.6 	"/>
	<polygon style="fill:#FFFFFF;" points="55.6,5.3 60.9,4.6 63.2,0 44.9,0 47.3,4.6 52.5,5.3 48.7,8.9 49.6,14 58.5,14 59.4,8.9 	"/>
	<polygon style="fill:#FFFFFF;" points="2.9,14 12.3,14 7.6,11.6 	"/>
	<polygon style="fill:#FFFFFF;" points="74.8,5.3 80.1,4.6 82.4,0 63.2,0 65.6,4.6 70.8,5.3 67,8.9 67.9,14 77.7,14 78.6,8.9 	"/>
	<polygon style="fill:#FFFFFF;" points="77.7,14 87.1,14 82.4,11.6 	"/>
	<polygon style="fill:#FFFFFF;" points="87.1,14 90,14 90,5.3 86.2,8.9 	"/>
	<polygon style="fill:#FFFFFF;" points="82.4,0 84.8,4.6 90,5.3 90,0 	"/>
	<polygon style="fill:#FFFFFF;" points="58.5,14 67.9,14 63.2,11.6 	"/>
</g>
</svg>
